# xmcd
#
# Track frame offsets: 
#        150
#        9713
#        10283
#        22071
#        22764
#        23239
#        50213
#        68301
#        85998
#        111242
#        124464
#        137782
#        151880
#        158789
#        231031
#        237436
#        248929
#        258270
#        263738
#        283985
#        294470
#        302670
#        316983
#        326502
#        338475
#
# Disc length: 4788 seconds
#
# Revision: 0
# Processed by: cddbd v1.5.2PL0 Copyright (c) Steve Scherf et al.
# Submitted via: ExactAudioCopy v0.95b4
#
DISCID=5b12b219
DTITLE=The Beatles  - AB  Road - Complete Purple Chick Set v1.1 Jan.25
DTITLE=Various Artist - D3  FLAC
DYEAR=1900
DGENRE=
TTITLE0=Dialogue
TTITLE1=Get Back 23.78P
TTITLE2=Get Back 23.79P
TTITLE3=I've Got A Feeling 23.80P
TTITLE4=Help! 23.81P
TTITLE5=Teddy Boy 24.33P
TTITLE6=Two Of Us 24.69P
TTITLE7=Dig A Pony 22.70P
TTITLE8=I've Got A Feeling 22.71P
TTITLE9=Dialogue and tuning
TTITLE10=For You Blue 25.26
TTITLE11=For You Blue 25.27
TTITLE12=For You Blue 25.28
TTITLE13=For You Blue 25.29
TTITLE14=For You Blue 25.30
TTITLE15=For You Blue 25.31
TTITLE16=For You Blue 25.32
TTITLE17=For You Blue 25.33
TTITLE18=For You Blue 25.34
TTITLE19=For You Blue 25.35
TTITLE20=For You Blue 25.36
TTITLE21=For You Blue 25.37
TTITLE22=For You Blue 25.38
TTITLE23=For You Blue 25.34P
TTITLE24=For You Blue 25.37P
EXTD=
EXTT0=
EXTT1=
EXTT2=
EXTT3=
EXTT4=
EXTT5=
EXTT6=
EXTT7=
EXTT8=
EXTT9=
EXTT10=
EXTT11=
EXTT12=
EXTT13=
EXTT14=
EXTT15=
EXTT16=
EXTT17=
EXTT18=
EXTT19=
EXTT20=
EXTT21=
EXTT22=
EXTT23=
EXTT24=
PLAYORDER=
